Coordinates
version=1
nRows=23
nColumns=30
inDegrees=yes

Units are S.I. units (second, meters, Newtons, ...)
Angles are in degrees.

endheader
time	floatyaw	floatroll	floatpitch	floatx	floaty	floatz	pro_sup_l	deviation_l	flexion_l	cmc_flexion_l	cmc_abduction_l	mp_flexion_l	ip_flexion_l	2mcp_flexion_l	2mcp_abduction_l	2pm_flexion_l	2md_flexion_l	3mcp_flexion_l	3mcp_abduction_l	3pm_flexion_l	3md_flexion_l	4mcp_flexion_l	4mcp_abduction_l	4pm_flexion_l	4md_flexion_l	5mcp_flexion_l	5mcp_abduction_l	5pm_flexion_l	5md_flexion_l
-0.495000	-2.783033	-3.505068	94.703499	0.013581	-0.254614	0.029331	89.004659	5.799391	3.135803	15.679461	8.980214	-16.025159	-22.368953	27.675676	7.176034	26.682051	17.736652	15.724488	5.087374	30.515697	21.545618	3.804861	-3.595120	47.214223	31.769947	-8.139529	-9.844096	49.813640	40.052496
-0.485000	-2.783033	-3.505068	94.703499	0.017017	-0.252819	0.033244	88.738407	6.701275	3.602117	14.412425	9.696565	-15.921141	-21.485534	28.860565	7.253298	25.894914	17.360010	17.066857	5.148386	29.674603	21.373870	4.861311	-3.539841	46.435716	31.815011	-6.413229	-9.820341	48.258718	39.113337
-0.475000	-2.783033	-3.505068	94.703499	0.020787	-0.251012	0.037433	88.572730	7.688969	4.046504	13.203096	10.317355	-15.825852	-20.682796	29.985353	7.348185	25.197243	17.033241	18.481144	5.198601	28.824476	21.204258	5.917130	-3.486799	45.708093	31.964644	-4.891052	-9.772993	46.914157	38.367106
-0.465000	-2.783033	-3.505068	94.703499	0.024885	-0.249188	0.041880	88.530232	8.740469	4.477977	12.078889	10.847632	-15.742891	-19.981598	31.056499	7.450415	24.599261	16.745804	19.912002	5.239222	28.008633	21.045309	6.944812	-3.438200	45.076887	32.189261	-3.582782	-9.712150	45.820948	37.797011
-0.455000	-2.783033	-3.505068	94.703499	0.029294	-0.247365	0.046574	88.621946	9.833026	4.905933	11.048880	11.301683	-15.674578	-19.385837	32.105087	7.550888	24.083169	16.475740	21.323785	5.275502	27.255101	20.898244	7.936529	-3.396497	44.555820	32.443103	-2.468625	-9.648207	44.973660	37.366431
-0.445000	-2.783033	-3.505068	94.703499	0.033994	-0.245579	0.051514	88.845858	10.945414	5.340716	10.106826	11.696444	-15.620585	-18.885716	33.162700	7.647111	23.624065	16.205234	22.705129	5.313423	26.576290	20.761584	8.903854	-3.363077	44.121903	32.681051	-1.521069	-9.591159	44.335523	37.035941
-0.435000	-2.783033	-3.505068	94.703499	0.038968	-0.243881	0.056700	89.188254	12.057981	5.795342	9.238038	12.050425	-15.577710	-18.463751	34.240976	7.743565	23.210763	15.933116	24.062680	5.356572	25.976859	20.637095	9.872038	-3.337935	43.729307	32.874180	-0.717817	-9.549085	43.857698	36.774363
-0.425000	-2.783033	-3.505068	94.703499	0.044195	-0.242326	0.062120	89.628861	13.151836	6.284937	8.427664	12.386189	-15.540984	-18.101553	35.324091	7.847511	22.855043	15.678558	25.409078	5.404932	25.462312	20.534187	10.871247	-3.320274	43.334599	33.017337	-0.044022	-9.527406	43.497197	36.565370
-0.415000	-2.783033	-3.505068	94.703499	0.049648	-0.240964	0.067749	90.148288	14.208529	6.823732	7.667693	12.731714	-15.506328	-17.786193	36.374742	7.963581	22.586262	15.475332	26.751176	5.455853	25.042003	20.471286	11.926519	-3.309595	42.919650	33.126561	0.510533	-9.529603	43.229488	36.411721
-0.405000	-2.783033	-3.505068	94.703499	0.055294	-0.239844	0.073546	90.734669	15.210754	7.422496	6.959975	13.116885	-15.473696	-17.514310	37.347494	8.090969	22.436710	15.360341	28.082860	5.506318	24.725616	20.473514	13.048674	-3.306843	42.500677	33.228888	0.954478	-9.558157	43.052328	36.335470
-0.395000	-2.783033	-3.505068	94.703499	0.061091	-0.239000	0.079468	91.386694	16.143749	8.088855	6.313700	13.565631	-15.448101	-17.291229	38.202024	8.224767	22.426744	15.361654	29.384322	5.555003	24.517043	20.566790	14.229713	-3.315061	42.119955	33.349642	1.298273	-9.614061	42.978941	36.370384
-0.385000	-2.783033	-3.505068	94.703499	0.067002	-0.238447	0.085474	92.112134	16.996718	8.829762	5.738362	14.088846	-15.436539	-17.124078	38.911524	8.359623	22.556650	15.490295	30.627322	5.602808	24.410546	20.769970	15.445840	-3.338832	41.825481	33.502674	1.559501	-9.695000	43.023084	36.546263
-0.375000	-2.783033	-3.505068	94.703499	0.072989	-0.238177	0.091529	92.923055	17.763703	9.653174	5.235797	14.683725	-15.441811	-17.012029	39.465294	8.492386	22.807412	15.737864	31.784185	5.651487	24.391537	21.087874	16.667920	-3.382289	41.649486	33.687680	1.768192	-9.794086	43.183927	36.871489
-0.365000	-2.783033	-3.505068	94.703499	0.079022	-0.238164	0.097598	93.829955	18.443598	10.566848	4.795851	15.340558	-15.457140	-16.939775	39.866891	8.621856	23.148429	16.080256	32.837120	5.701384	24.441081	21.508289	17.874433	-3.446662	41.596961	33.895649	1.967819	-9.901064	43.439745	37.323414
-0.355000	-2.783033	-3.505068	94.703499	0.085068	-0.238378	0.103645	94.836563	19.038977	11.575067	4.398496	16.052156	-15.465648	-16.879001	40.129528	8.746658	23.548156	16.486346	33.783691	5.750072	24.542005	22.005071	19.059602	-3.529006	41.649754	34.118934	2.209984	-10.005926	43.753839	37.852555
-0.345000	-2.783033	-3.505068	94.703499	0.091098	-0.238804	0.109633	95.936433	19.553705	12.676194	4.021455	16.818895	-15.445773	-16.797537	40.269995	8.863698	23.983590	16.928985	34.635400	5.793058	24.684559	22.547256	20.232268	-3.623232	41.782312	34.358937	2.545441	-10.102694	44.087964	38.398534
-0.335000	-2.783033	-3.505068	94.703499	0.097077	-0.239440	0.115524	97.112470	19.990131	13.863204	3.648909	17.645768	-15.379864	-16.670900	40.302744	8.968723	24.445458	17.394218	35.410095	5.826149	24.869682	23.110943	21.408025	-3.723007	41.977716	34.625251	3.015892	-10.190888	44.414707	38.909507
-0.325000	-2.783033	-3.505068	94.703499	0.102968	-0.240296	0.121284	98.340326	20.347508	15.126341	3.276596	18.533961	-15.261057	-16.489885	40.236653	9.058521	24.937622	17.884516	36.123209	5.847865	25.107896	23.688305	22.601815	-3.824855	42.233376	34.926374	3.648787	-10.274083	44.723211	39.356398
-0.315000	-2.783033	-3.505068	94.703499	0.108737	-0.241381	0.126880	99.595069	20.622934	16.454657	2.911681	19.473565	-15.094748	-16.261015	40.076454	9.133108	25.471490	18.414456	36.783901	5.860279	25.413239	24.288788	23.826034	-3.929594	42.554433	35.259259	4.454718	-10.356979	45.018080	39.737505
-0.305000	-2.783033	-3.505068	94.703499	0.114349	-0.242693	0.132286	100.858451	20.814641	17.834071	2.568974	20.443140	-14.894516	-16.001158	39.827916	9.196263	26.058662	19.001516	37.398238	5.867760	25.794576	24.931705	25.092599	-4.041273	42.942434	35.606548	5.426924	-10.442977	45.314179	40.073572
-0.295000	-2.783033	-3.505068	94.703499	0.119776	-0.244219	0.137480	102.123253	20.925853	19.243082	2.266092	21.416931	-14.675497	-15.730141	39.502822	9.253872	26.705826	19.657339	37.975804	5.874451	26.249077	25.634331	26.413342	-4.164258	43.389415	35.944412	6.543881	-10.533374	45.629783	40.396075
-0.285000	-2.783033	-3.505068	94.703499	0.124986	-0.245944	0.142445	103.392675	20.966980	20.650121	2.019332	22.375297	-14.448917	-15.464803	39.119718	9.310861	27.413785	20.383713	38.533547	5.882134	26.761897	26.401835	27.795496	-4.300113	43.881824	36.255450	7.775417	-10.628167	45.980124	40.733340
-0.275000	-2.783033	-3.505068	94.703499	0.129947	-0.247850	0.147170	104.675580	20.955054	22.016006	1.841091	23.311885	-14.219792	-15.215973	38.699938	9.368407	28.179105	21.173687	39.093492	5.889769	27.312082	27.223797	29.234997	-4.445865	44.410278	36.537704	9.089989	-10.727538	46.373587	41.100525
